<svg width="180" height="180" viewBox="0 0 180 180" fill="none" xmlns="http://www.w3.org/2000/svg">
<rect width="180" height="180" fill="#1A1423"/>
<path d="M42 45C42 33.9543 50.9543 25 62 25H119C130.046 25 139 33.9543 139 45V122H42V45Z" fill="#FA8334"/>
<g clip-path="url(#clip0_31_12)">
<path d="M90.5 54.6562C90.5 54.101 90.2794 53.5684 89.8868 53.1757C89.4941 52.7831 88.9615 52.5625 88.4062 52.5625C87.851 52.5625 87.3184 52.7831 86.9257 53.1757C86.5331 53.5684 86.3125 54.101 86.3125 54.6562V77.6875C86.3126 78.0566 86.4103 78.419 86.5956 78.7382C86.7809 79.0573 87.0473 79.3218 87.3677 79.5049L102.024 87.8799C102.505 88.1398 103.069 88.2013 103.594 88.0512C104.12 87.9012 104.566 87.5514 104.837 87.0767C105.109 86.602 105.183 86.0401 105.046 85.511C104.908 84.9818 104.569 84.5275 104.101 84.2451L90.5 76.4731V54.6562Z" fill="black"/>
<path d="M90.5 107C99.3848 107 107.906 103.471 114.188 97.1881C120.471 90.9056 124 82.3848 124 73.5C124 64.6152 120.471 56.0944 114.188 49.8119C107.906 43.5295 99.3848 40 90.5 40C81.6152 40 73.0944 43.5295 66.8119 49.8119C60.5295 56.0944 57 64.6152 57 73.5C57 82.3848 60.5295 90.9056 66.8119 97.1881C73.0944 103.471 81.6152 107 90.5 107V107ZM119.812 73.5C119.812 81.2742 116.724 88.7299 111.227 94.2271C105.73 99.7242 98.2742 102.812 90.5 102.812C82.7258 102.812 75.2701 99.7242 69.7729 94.2271C64.2758 88.7299 61.1875 81.2742 61.1875 73.5C61.1875 65.7258 64.2758 58.2701 69.7729 52.7729C75.2701 47.2758 82.7258 44.1875 90.5 44.1875C98.2742 44.1875 105.73 47.2758 111.227 52.7729C116.724 58.2701 119.812 65.7258 119.812 73.5V73.5Z" fill="white"/>
</g>
<path d="M68.6127 146.506L42.0001 122H97.7222L68.6127 146.506Z" fill="#C16121"/>
<path d="M111.241 147L83 122H139L111.241 147Z" fill="#E0732A"/>
<defs>
<clipPath id="clip0_31_12">
<rect width="67" height="67" fill="white" transform="translate(57 40)"/>
</clipPath>
</defs>
</svg>
