<svg width="95" height="94" viewBox="0 0 95 94" fill="none" xmlns="http://www.w3.org/2000/svg">
<path d="M33.1287 20.5625C35.4659 20.5625 37.7074 21.491 39.36 23.1436C41.0127 24.7963 41.9412 27.0378 41.9412 29.375V64.625C41.9412 66.9622 41.0127 69.2037 39.36 70.8564C37.7074 72.509 35.4659 73.4375 33.1287 73.4375C30.7914 73.4375 28.5499 72.509 26.8973 70.8564C25.2446 69.2037 24.3162 66.9622 24.3162 64.625V29.375C24.3162 27.0378 25.2446 24.7963 26.8973 23.1436C28.5499 21.491 30.7914 20.5625 33.1287 20.5625V20.5625ZM62.5037 20.5625C64.8409 20.5625 67.0824 21.491 68.735 23.1436C70.3877 24.7963 71.3162 27.0378 71.3162 29.375V64.625C71.3162 66.9622 70.3877 69.2037 68.735 70.8564C67.0824 72.509 64.8409 73.4375 62.5037 73.4375C60.1664 73.4375 57.9249 72.509 56.2723 70.8564C54.6196 69.2037 53.6912 66.9622 53.6912 64.625V29.375C53.6912 27.0378 54.6196 24.7963 56.2723 23.1436C57.9249 21.491 60.1664 20.5625 62.5037 20.5625Z" fill="white"/>
</svg>
