<svg width="49" height="54" viewBox="0 0 49 54" fill="none" xmlns="http://www.w3.org/2000/svg">
<g clip-path="url(#clip0_24_4)">
<path d="M9.44485 0.5625C11.7821 0.5625 14.0236 1.49096 15.6762 3.14362C17.3289 4.79629 18.2574 7.03778 18.2574 9.375V44.625C18.2574 46.9622 17.3289 49.2037 15.6762 50.8564C14.0236 52.509 11.7821 53.4375 9.44485 53.4375C7.10763 53.4375 4.86614 52.509 3.21348 50.8564C1.56081 49.2037 0.632355 46.9622 0.632355 44.625V9.375C0.632355 7.03778 1.56081 4.79629 3.21348 3.14362C4.86614 1.49096 7.10763 0.5625 9.44485 0.5625ZM38.8199 0.5625C41.1571 0.5625 43.3986 1.49096 45.0512 3.14362C46.7039 4.79629 47.6324 7.03778 47.6324 9.375V44.625C47.6324 46.9622 46.7039 49.2037 45.0512 50.8564C43.3986 52.509 41.1571 53.4375 38.8199 53.4375C36.4826 53.4375 34.2411 52.509 32.5885 50.8564C30.9358 49.2037 30.0074 46.9622 30.0074 44.625V9.375C30.0074 7.03778 30.9358 4.79629 32.5885 3.14362C34.2411 1.49096 36.4826 0.5625 38.8199 0.5625Z" fill="white"/>
</g>
<defs>
<clipPath id="clip0_24_4">
<rect width="48" height="54" fill="white" transform="translate(0.316177)"/>
</clipPath>
</defs>
</svg>
