<svg width="79" height="78" viewBox="0 0 79 78" fill="none" xmlns="http://www.w3.org/2000/svg">
<path d="M56.7282 34.1251H75.8967C76.1283 34.1251 76.3551 34.1912 76.5505 34.3155C76.7459 34.4398 76.9018 34.6172 77 34.8269C77.0982 35.0367 77.1346 35.27 77.105 35.4997C77.0754 35.7294 76.981 35.9459 76.8327 36.1238L67.2485 47.6288C67.1341 47.766 66.991 47.8763 66.8292 47.952C66.6675 48.0278 66.4911 48.067 66.3125 48.067C66.1339 48.067 65.9575 48.0278 65.7957 47.952C65.634 47.8763 65.4909 47.766 65.3765 47.6288L55.7922 36.1238C55.644 35.9459 55.5496 35.7294 55.52 35.4997C55.4903 35.27 55.5268 35.0367 55.625 34.8269C55.7232 34.6172 55.8791 34.4398 56.0745 34.3155C56.2699 34.1912 56.4967 34.1251 56.7282 34.1251V34.1251ZM3.10324 43.8751H22.2717C22.5033 43.875 22.7301 43.8089 22.9255 43.6846C23.1209 43.5603 23.2768 43.3829 23.375 43.1732C23.4732 42.9634 23.5096 42.7301 23.48 42.5004C23.4504 42.2707 23.356 42.0542 23.2077 41.8763L13.6235 30.3713C13.5091 30.2341 13.366 30.1238 13.2042 30.0481C13.0425 29.9724 12.8661 29.9331 12.6875 29.9331C12.5089 29.9331 12.3325 29.9724 12.1707 30.0481C12.009 30.1238 11.8659 30.2341 11.7515 30.3713L2.16724 41.8763C2.01903 42.0542 1.92458 42.2707 1.89496 42.5004C1.86534 42.7301 1.90177 42.9634 1.99998 43.1732C2.09819 43.3829 2.25412 43.5603 2.44951 43.6846C2.6449 43.8089 2.87166 43.875 3.10324 43.8751V43.8751Z" fill="white"/>
<path fill-rule="evenodd" clip-rule="evenodd" d="M39.5 14.625C31.934 14.625 25.1675 18.0716 20.6971 23.4877C20.4975 23.7465 20.2479 23.9624 19.9631 24.1227C19.6784 24.2831 19.3643 24.3845 19.0396 24.421C18.7148 24.4575 18.386 24.4284 18.0728 24.3353C17.7596 24.2422 17.4682 24.087 17.2161 23.8791C16.9641 23.6711 16.7564 23.4146 16.6054 23.1248C16.4544 22.835 16.3633 22.5178 16.3374 22.192C16.3115 21.8662 16.3513 21.5386 16.4546 21.2286C16.5579 20.9185 16.7224 20.6324 16.9385 20.3872C20.5079 16.0657 25.2435 12.8603 30.582 11.1523C35.9204 9.44431 41.6372 9.30562 47.0522 10.7527C52.4672 12.1998 57.3527 15.1718 61.1275 19.3151C64.9023 23.4585 67.4076 28.5989 68.3454 34.125H63.3875C62.2619 28.6202 59.2699 23.6729 54.9173 20.1198C50.5647 16.5667 45.1187 14.6257 39.5 14.625V14.625ZM15.6125 43.875C16.5354 48.3825 18.7147 52.537 21.8987 55.8584C25.0827 59.1798 29.1414 61.5327 33.6059 62.6451C38.0705 63.7576 42.7586 63.5842 47.1288 62.1451C51.499 60.7059 55.3729 58.0597 58.3029 54.5122C58.5025 54.2535 58.7521 54.0375 59.0368 53.8772C59.3216 53.7169 59.6357 53.6154 59.9604 53.5789C60.2851 53.5424 60.6139 53.5716 60.9272 53.6647C61.2404 53.7578 61.5317 53.9129 61.7838 54.1209C62.0359 54.3288 62.2436 54.5853 62.3946 54.8751C62.5455 55.165 62.6367 55.4822 62.6626 55.808C62.6885 56.1337 62.6486 56.4614 62.5453 56.7714C62.4421 57.0814 62.2775 57.3676 62.0615 57.6127C58.4921 61.9343 53.7565 65.1397 48.418 66.8477C43.0795 68.5556 37.3628 68.6943 31.9477 67.2472C26.5327 65.8002 21.6473 62.8282 17.8725 58.6848C14.0977 54.5414 11.5924 49.401 10.6546 43.875H15.6125Z" fill="white"/>
</svg>
