<svg width="97" height="122" viewBox="0 0 97 122" fill="none" xmlns="http://www.w3.org/2000/svg">
<path d="M0 20C0 8.95431 8.95431 0 20 0H77C88.0457 0 97 8.95431 97 20V97H0V20Z" fill="#FA8334"/>
<g clip-path="url(#clip0_6_341)">
<path d="M48.5 29.6562C48.5 29.101 48.2794 28.5684 47.8868 28.1757C47.4941 27.7831 46.9615 27.5625 46.4062 27.5625C45.851 27.5625 45.3184 27.7831 44.9257 28.1757C44.5331 28.5684 44.3125 29.101 44.3125 29.6562V52.6875C44.3126 53.0566 44.4103 53.419 44.5956 53.7382C44.7809 54.0573 45.0473 54.3218 45.3677 54.5049L60.024 62.8799C60.505 63.1398 61.0685 63.2013 61.5942 63.0512C62.12 62.9012 62.5661 62.5514 62.8374 62.0767C63.1086 61.602 63.1834 61.0401 63.0458 60.511C62.9082 59.9818 62.5691 59.5275 62.101 59.2451L48.5 51.4731V29.6562Z" fill="black"/>
<path d="M48.5 82C57.3848 82 65.9056 78.4705 72.1881 72.1881C78.4705 65.9056 82 57.3848 82 48.5C82 39.6152 78.4705 31.0944 72.1881 24.8119C65.9056 18.5295 57.3848 15 48.5 15C39.6152 15 31.0944 18.5295 24.8119 24.8119C18.5295 31.0944 15 39.6152 15 48.5C15 57.3848 18.5295 65.9056 24.8119 72.1881C31.0944 78.4705 39.6152 82 48.5 82V82ZM77.8125 48.5C77.8125 56.2742 74.7242 63.7299 69.2271 69.2271C63.7299 74.7242 56.2742 77.8125 48.5 77.8125C40.7258 77.8125 33.2701 74.7242 27.7729 69.2271C22.2758 63.7299 19.1875 56.2742 19.1875 48.5C19.1875 40.7258 22.2758 33.2701 27.7729 27.7729C33.2701 22.2758 40.7258 19.1875 48.5 19.1875C56.2742 19.1875 63.7299 22.2758 69.2271 27.7729C74.7242 33.2701 77.8125 40.7258 77.8125 48.5V48.5Z" fill="white"/>
</g>
<path d="M26.6127 121.506L6.10352e-05 97H55.7222L26.6127 121.506Z" fill="#C16121"/>
<path d="M69.241 122L41 97H97L69.241 122Z" fill="#E0732A"/>
<defs>
<clipPath id="clip0_6_341">
<rect width="67" height="67" fill="white" transform="translate(15 15)"/>
</clipPath>
</defs>
</svg>
